<?xml version="1.0" encoding="utf-8"?>
<!-- Generator: Adobe Illustrator 24.0.0, SVG Export Plug-In . SVG Version: 6.00 Build 0)  -->
<svg version="1.1" id="Capa_1" xmlns="http://www.w3.org/2000/svg" xmlns:xlink="http://www.w3.org/1999/xlink" x="0px" y="0px"
	 viewBox="0 0 432 41.04" style="enable-background:new 0 0 432 41.04;" xml:space="preserve">
<style type="text/css">
	.st0{fill:#202D55;}
	.st1{fill:#EC5F94;}
	.st2{fill:#5CC5EE;}
	.st3{fill:#F8A815;}
	.st4{fill:#916EAE;}
</style>
<g>
	<rect y="0" class="st0" width="432" height="41.04"/>
	<g>
		<path class="st1" d="M384.08,36.55c-0.99-0.18-1.62,0.19-2.86,0.4c-1.83,0.3-2.03,0.82-1.33,1.08c0.7,0.25,1.77-0.02,2.63,0.15
			c0,0,0.01,0,0.01,0c0,0,0.01,0,0.01,0c0.87,0.16,1.17,0.69,2.06,0.74s1.6-0.37,0.82-1.17C384.89,37.2,385.05,36.74,384.08,36.55z"
			/>
		<path class="st1" d="M382.02,35.77c0.22,0.44-0.11,0.85-0.74,0.91c-0.63,0.06-1.33-0.24-1.55-0.68c-0.22-0.44,0.11-0.85,0.74-0.91
			C381.1,35.03,381.79,35.33,382.02,35.77z"/>
		<path class="st1" d="M386.76,36.67c-0.86,0.23-1.29,0.62-0.96,0.87c0.33,0.25,1.3,0.26,2.17,0.03s1.29-0.62,0.96-0.87
			C388.6,36.46,387.63,36.44,386.76,36.67z"/>
		<path class="st1" d="M384.94,35.33c-0.24,0.46-0.97,0.78-1.64,0.71c-0.67-0.07-1.01-0.5-0.77-0.96c0.24-0.46,0.97-0.78,1.64-0.71
			C384.83,34.44,385.18,34.87,384.94,35.33z"/>
		<path class="st1" d="M385.45,35.43c-0.58,0.4-0.59,0.85-0.02,1.02c0.57,0.17,1.51-0.02,2.09-0.41c0.58-0.4,0.59-0.85,0.02-1.02
			C386.96,34.85,386.03,35.03,385.45,35.43z"/>
	</g>
	<g>
		<path class="st1" d="M380.67,8.7c-0.99-0.18-1.62,0.19-2.86,0.4c-1.83,0.3-2.03,0.82-1.33,1.08c0.7,0.25,1.77-0.02,2.63,0.15
			c0,0,0.01,0,0.01,0c0,0,0.01,0,0.01,0c0.87,0.16,1.17,0.69,2.06,0.74s1.6-0.37,0.82-1.17C381.48,9.36,381.65,8.9,380.67,8.7z"/>
		<path class="st1" d="M378.61,7.92c0.22,0.44-0.11,0.85-0.74,0.91c-0.63,0.06-1.33-0.24-1.55-0.68s0.11-0.85,0.74-0.91
			C377.69,7.18,378.39,7.49,378.61,7.92z"/>
		<path class="st1" d="M383.36,8.83c-0.86,0.23-1.29,0.62-0.96,0.87c0.33,0.25,1.3,0.26,2.17,0.03c0.86-0.23,1.29-0.62,0.96-0.87
			C385.19,8.61,384.22,8.6,383.36,8.83z"/>
		<path class="st1" d="M381.53,7.49c-0.24,0.46-0.97,0.78-1.64,0.71c-0.67-0.07-1.01-0.5-0.77-0.96c0.24-0.46,0.97-0.78,1.64-0.71
			C381.43,6.6,381.77,7.03,381.53,7.49z"/>
		<path class="st1" d="M382.04,7.59c-0.58,0.4-0.59,0.85-0.02,1.02c0.57,0.17,1.51-0.02,2.09-0.41c0.58-0.4,0.59-0.85,0.02-1.02
			C383.56,7,382.62,7.19,382.04,7.59z"/>
	</g>
	<g>
		<path class="st1" d="M220.48,31.49c-0.99-0.18-1.62,0.19-2.86,0.4c-1.83,0.3-2.03,0.82-1.33,1.08c0.7,0.25,1.77-0.02,2.63,0.15
			c0,0,0.01,0,0.01,0c0,0,0.01,0,0.01,0c0.87,0.16,1.17,0.69,2.06,0.74c0.89,0.05,1.6-0.37,0.82-1.17
			C221.28,32.15,221.45,31.69,220.48,31.49z"/>
		<path class="st1" d="M218.41,30.71c0.22,0.44-0.11,0.85-0.74,0.91c-0.63,0.06-1.33-0.24-1.55-0.68s0.11-0.85,0.74-0.91
			C217.5,29.97,218.19,30.28,218.41,30.71z"/>
		<path class="st1" d="M223.16,31.62c-0.86,0.23-1.29,0.62-0.96,0.87c0.33,0.25,1.3,0.26,2.17,0.03s1.29-0.62,0.96-0.87
			C225,31.4,224.03,31.39,223.16,31.62z"/>
		<path class="st1" d="M221.34,30.28c-0.24,0.46-0.97,0.78-1.64,0.71c-0.67-0.07-1.01-0.5-0.77-0.96c0.24-0.46,0.97-0.78,1.64-0.71
			C221.23,29.39,221.58,29.82,221.34,30.28z"/>
		<path class="st1" d="M221.85,30.37c-0.58,0.4-0.59,0.85-0.02,1.02c0.57,0.17,1.51-0.02,2.09-0.41c0.58-0.4,0.59-0.85,0.02-1.02
			C223.36,29.79,222.43,29.98,221.85,30.37z"/>
	</g>
	<g>
		<path class="st1" d="M391.97,25.25c1.52,0.32,2.57-0.23,4.57-0.49c2.93-0.39,3.37-1.2,2.32-1.62s-2.78-0.05-4.08-0.36
			c0,0-0.01,0-0.01,0c0,0-0.01,0-0.01,0c-1.33-0.29-1.68-1.13-3.06-1.26c-1.39-0.12-2.59,0.51-1.55,1.8
			C390.86,24.19,390.49,24.9,391.97,25.25z"/>
		<path class="st1" d="M395.02,26.56c-0.25-0.7,0.36-1.32,1.36-1.39c1-0.07,2.02,0.43,2.28,1.13c0.25,0.7-0.36,1.32-1.36,1.39
			S395.28,27.26,395.02,26.56z"/>
		<path class="st1" d="M387.8,24.93c1.4-0.32,2.17-0.91,1.7-1.31c-0.46-0.4-1.98-0.47-3.38-0.15c-1.4,0.32-2.17,0.91-1.7,1.31
			C384.88,25.19,386.39,25.25,387.8,24.93z"/>
		<path class="st1" d="M390.35,27.12c0.48-0.71,1.7-1.18,2.73-1.04c1.03,0.14,1.47,0.83,0.99,1.54c-0.48,0.71-1.7,1.18-2.73,1.04
			C390.32,28.52,389.87,27.83,390.35,27.12z"/>
		<path class="st1" d="M389.57,26.94c1-0.59,1.11-1.31,0.26-1.6c-0.86-0.29-2.36-0.04-3.36,0.56c-1,0.59-1.11,1.31-0.26,1.6
			C387.07,27.78,388.58,27.54,389.57,26.94z"/>
	</g>
	<g>
		<path class="st1" d="M251.18,34.18c-0.4-0.53-1.61-0.5-2.96-0.84c-1.99-0.5-3.19-0.19-3.16,0.28c0.03,0.47,1.39,0.69,1.69,1.17
			c0,0,0,0,0,0c0,0,0,0,0,0c0.35,0.47-0.5,0.99,0.07,1.39c0.57,0.4,1.96,0.35,2.97-0.56C250.48,35,251.52,34.72,251.18,34.18z"/>
		<path class="st1" d="M251.18,32.77c-0.71,0.42-1.77,0.6-2.38,0.4c-0.61-0.2-0.53-0.71,0.18-1.13c0.71-0.42,1.77-0.6,2.38-0.4
			C251.97,31.84,251.89,32.35,251.18,32.77z"/>
		<path class="st1" d="M252.96,35.35c-1.12-0.17-2.22-0.05-2.47,0.27c-0.25,0.32,0.46,0.72,1.58,0.89c1.12,0.17,2.22,0.05,2.47-0.27
			S254.08,35.52,252.96,35.35z"/>
		<path class="st1" d="M254.27,33.61c-1.11,0.25-2.3,0.2-2.67-0.12s0.23-0.78,1.34-1.04c1.11-0.25,2.3-0.2,2.67,0.12
			C255.97,32.89,255.38,33.35,254.27,33.61z"/>
		<path class="st1" d="M254.46,33.88c-1.23,0.07-2.16,0.41-2.06,0.77c0.1,0.36,1.18,0.59,2.41,0.52c1.23-0.07,2.16-0.41,2.06-0.77
			S255.7,33.81,254.46,33.88z"/>
	</g>
	<g>
		<path class="st1" d="M223.47,14.99c-0.4-0.53-1.61-0.5-2.96-0.84c-1.99-0.5-3.19-0.19-3.16,0.28c0.03,0.47,1.38,0.69,1.69,1.17
			c0,0,0,0,0,0c0,0,0,0,0,0c0.35,0.47-0.5,0.99,0.07,1.39c0.57,0.4,1.96,0.35,2.97-0.56C222.77,15.81,223.81,15.53,223.47,14.99z"/>
		<path class="st1" d="M223.47,13.58c-0.71,0.42-1.77,0.6-2.38,0.4c-0.61-0.2-0.53-0.71,0.18-1.13c0.71-0.42,1.77-0.6,2.38-0.4
			C224.25,12.65,224.18,13.15,223.47,13.58z"/>
		<path class="st1" d="M225.25,16.16c-1.12-0.17-2.22-0.05-2.47,0.27c-0.25,0.32,0.46,0.72,1.58,0.89c1.12,0.17,2.22,0.05,2.47-0.27
			C227.07,16.73,226.37,16.33,225.25,16.16z"/>
		<path class="st1" d="M226.56,14.41c-1.11,0.25-2.3,0.2-2.67-0.12c-0.37-0.32,0.23-0.78,1.34-1.04c1.11-0.25,2.3-0.2,2.67,0.12
			C228.26,13.69,227.66,14.16,226.56,14.41z"/>
		<path class="st1" d="M226.75,14.69c-1.23,0.07-2.16,0.41-2.06,0.77c0.1,0.36,1.18,0.59,2.41,0.52c1.23-0.07,2.16-0.41,2.06-0.77
			C229.07,14.86,227.98,14.62,226.75,14.69z"/>
	</g>
	<g>
		<path class="st1" d="M268.27,18.57c-0.4-0.53-1.61-0.5-2.96-0.84c-1.99-0.5-3.19-0.19-3.16,0.28c0.03,0.47,1.39,0.69,1.69,1.17
			c0,0,0,0,0,0s0,0,0,0c0.35,0.47-0.5,0.99,0.07,1.39c0.57,0.4,1.96,0.35,2.97-0.56C267.57,19.39,268.61,19.11,268.27,18.57z"/>
		<path class="st1" d="M268.26,17.16c-0.71,0.42-1.77,0.6-2.38,0.4c-0.61-0.2-0.53-0.71,0.18-1.13c0.71-0.42,1.77-0.6,2.38-0.4
			C269.05,16.23,268.97,16.74,268.26,17.16z"/>
		<path class="st1" d="M270.05,19.74c-1.12-0.17-2.22-0.05-2.47,0.27c-0.25,0.32,0.46,0.72,1.58,0.89c1.12,0.17,2.22,0.05,2.47-0.27
			C271.87,20.31,271.17,19.91,270.05,19.74z"/>
		<path class="st1" d="M271.35,17.99c-1.11,0.25-2.3,0.2-2.67-0.12s0.23-0.78,1.34-1.04c1.11-0.25,2.3-0.2,2.67,0.12
			C273.06,17.28,272.46,17.74,271.35,17.99z"/>
		<path class="st1" d="M271.55,18.27c-1.23,0.07-2.16,0.41-2.06,0.77c0.1,0.36,1.18,0.59,2.41,0.52c1.23-0.07,2.16-0.41,2.06-0.77
			C273.86,18.44,272.78,18.2,271.55,18.27z"/>
	</g>
	<g>
		<path class="st1" d="M331.16,11.77c-0.4-0.53-1.61-0.5-2.96-0.84c-1.99-0.5-3.19-0.19-3.16,0.28c0.03,0.47,1.39,0.69,1.69,1.17
			c0,0,0,0,0,0c0,0,0,0,0,0c0.35,0.47-0.5,0.99,0.07,1.39c0.57,0.4,1.96,0.35,2.97-0.56C330.47,12.59,331.5,12.31,331.16,11.77z"/>
		<path class="st1" d="M331.16,10.36c-0.71,0.42-1.77,0.6-2.38,0.4c-0.61-0.2-0.53-0.71,0.18-1.13c0.71-0.42,1.77-0.6,2.38-0.4
			C331.95,9.43,331.87,9.94,331.16,10.36z"/>
		<path class="st1" d="M332.94,12.94c-1.12-0.17-2.22-0.05-2.47,0.27c-0.25,0.32,0.46,0.72,1.58,0.89c1.12,0.17,2.22,0.05,2.47-0.27
			C334.77,13.51,334.06,13.11,332.94,12.94z"/>
		<path class="st1" d="M334.25,11.2c-1.11,0.25-2.3,0.2-2.67-0.12c-0.37-0.32,0.23-0.78,1.34-1.04c1.11-0.25,2.3-0.2,2.67,0.12
			C335.96,10.48,335.36,10.94,334.25,11.2z"/>
		<path class="st1" d="M334.44,11.47c-1.23,0.07-2.16,0.41-2.06,0.77c0.1,0.36,1.18,0.59,2.41,0.52c1.23-0.07,2.16-0.41,2.06-0.77
			C336.76,11.64,335.68,11.41,334.44,11.47z"/>
	</g>
	<g>
		<path class="st1" d="M195.32,34.27c0.87-0.81-0.58-1.37-1.27-2.44c-1.01-1.57-3.17-1.81-4.32-1.25c-1.14,0.55-0.15,1.48-0.99,2.17
			c0,0-0.01,0-0.01,0.01c0,0,0,0-0.01,0.01c-0.78,0.71-3.04,0.88-3.39,1.62c-0.34,0.74,1.35,1.38,4.79,0.84
			C192.48,34.85,194.36,35.05,195.32,34.27z"/>
		<path class="st1" d="M198.86,32.65c-1.86,0.13-3.52-0.2-3.7-0.74c-0.19-0.54,1.17-1.07,3.03-1.2c1.86-0.13,3.52,0.2,3.7,0.74
			C202.07,31.98,200.72,32.52,198.86,32.65z"/>
		<path class="st1" d="M194.43,36.49c-0.85-0.75-2.41-1.16-3.5-0.92c-1.08,0.24-1.28,1.05-0.43,1.8c0.85,0.75,2.41,1.16,3.5,0.92
			C195.08,38.05,195.28,37.24,194.43,36.49z"/>
		<path class="st1" d="M200.29,35.15c-1.9-0.26-3.13-0.92-2.75-1.46c0.38-0.55,2.22-0.78,4.12-0.52c1.9,0.26,3.13,0.92,2.75,1.46
			C204.03,35.18,202.18,35.41,200.29,35.15z"/>
		<path class="st1" d="M199.81,35.56c-1.58-0.54-3.49-0.61-4.26-0.15s-0.13,1.26,1.45,1.8s3.49,0.61,4.26,0.15
			C202.04,36.9,201.39,36.1,199.81,35.56z"/>
	</g>
	<g>
		<path class="st1" d="M103.31,29.9c-0.1,0.49,0.89,0.66,1.71,1.15c1.2,0.72,2.42,0.66,2.77,0.28c0.35-0.39-0.56-0.78-0.42-1.21
			c0,0,0,0,0,0c0,0,0,0,0,0c0.1-0.43,1.2-0.72,1.06-1.13c-0.14-0.41-1.29-0.6-2.84-0.02C104.53,29.36,103.47,29.41,103.31,29.9z"/>
		<path class="st1" d="M102.17,31.04c0.91-0.23,1.91-0.2,2.24,0.06c0.33,0.26-0.15,0.66-1.05,0.88c-0.91,0.23-1.91,0.2-2.24-0.06
			C100.79,31.66,101.26,31.27,102.17,31.04z"/>
		<path class="st1" d="M102.81,28.68c0.76,0.32,1.75,0.4,2.21,0.18c0.46-0.22,0.21-0.65-0.55-0.97c-0.76-0.32-1.75-0.4-2.21-0.18
			C101.81,27.92,102.05,28.36,102.81,28.68z"/>
		<path class="st1" d="M100.36,29.87c1.1-0.03,2.01,0.21,2.05,0.52c0.04,0.32-0.82,0.59-1.91,0.62c-1.1,0.03-2.01-0.21-2.05-0.52
			C98.41,30.18,99.26,29.9,100.36,29.87z"/>
		<path class="st1" d="M100.43,29.62c1.05,0.14,2.07,0.01,2.27-0.29c0.21-0.3-0.48-0.66-1.53-0.81c-1.05-0.14-2.07-0.01-2.27,0.29
			C98.7,29.11,99.38,29.48,100.43,29.62z"/>
	</g>
	<g>
		<path class="st1" d="M112.88,5.5c-0.98-0.33-1.93-0.01-3.46,0.04c-2.24,0.08-2.84,0.63-2.23,1.01s1.98,0.22,2.82,0.53
			c0,0,0.01,0,0.01,0c0,0,0.01,0,0.01,0c0.86,0.3,0.82,0.93,1.77,1.11c0.96,0.18,2.04-0.19,1.73-1.19
			C113.32,6.34,113.83,5.86,112.88,5.5z"/>
		<path class="st1" d="M111.13,4.35c-0.06,0.52-0.71,0.93-1.46,0.91c-0.75-0.02-1.31-0.45-1.25-0.97c0.06-0.52,0.71-0.93,1.45-0.91
			C110.63,3.4,111.19,3.83,111.13,4.35z"/>
		<path class="st1" d="M115.78,6.02c-1.12,0.14-1.87,0.51-1.67,0.83c0.2,0.32,1.26,0.47,2.38,0.34c1.12-0.14,1.87-0.51,1.67-0.83
			C117.97,6.03,116.9,5.88,115.78,6.02z"/>
		<path class="st1" d="M114.69,4.27c-0.59,0.48-1.63,0.73-2.32,0.56c-0.69-0.17-0.78-0.7-0.19-1.18c0.59-0.48,1.63-0.73,2.32-0.56
			C115.19,3.26,115.28,3.79,114.69,4.27z"/>
		<path class="st1" d="M115.19,4.45c-0.92,0.36-1.25,0.87-0.73,1.13c0.52,0.27,1.69,0.19,2.61-0.17c0.92-0.36,1.25-0.87,0.73-1.13
			C117.28,4.01,116.11,4.09,115.19,4.45z"/>
	</g>
	<g>
		<path class="st1" d="M49.82,17.46c0.69,0.62,2.16,0.49,3.96,0.81c2.63,0.47,3.99-0.01,3.78-0.58c-0.21-0.58-1.96-0.75-2.51-1.31
			c0,0,0,0-0.01-0.01c0,0,0,0-0.01-0.01c-0.6-0.55,0.24-1.25-0.61-1.7c-0.85-0.45-2.54-0.29-3.44,0.91
			C50.38,16.4,49.21,16.82,49.82,17.46z"/>
		<path class="st1" d="M50.36,19.19c0.71-0.57,1.96-0.87,2.78-0.66s0.91,0.83,0.2,1.4c-0.71,0.57-1.96,0.87-2.78,0.66
			C49.74,20.39,49.64,19.76,50.36,19.19z"/>
		<path class="st1" d="M47.2,16.15c1.43,0.13,2.75-0.11,2.93-0.52c0.18-0.41-0.83-0.85-2.27-0.98c-1.43-0.13-2.75,0.11-2.93,0.52
			C44.75,15.59,45.77,16.02,47.2,16.15z"/>
		<path class="st1" d="M46.25,18.39c1.26-0.39,2.75-0.42,3.32-0.06c0.57,0.36,0.01,0.98-1.26,1.37c-1.26,0.39-2.75,0.42-3.32,0.06
			C44.42,19.4,44.98,18.79,46.25,18.39z"/>
		<path class="st1" d="M45.91,18.07c1.49-0.18,2.49-0.67,2.24-1.1c-0.25-0.43-1.67-0.64-3.16-0.46c-1.49,0.18-2.49,0.67-2.24,1.1
			C43,18.04,44.42,18.24,45.91,18.07z"/>
	</g>
	<g>
		<path class="st1" d="M15.52,30.35c0.91-0.48,0.14-0.99,0.09-1.77c-0.08-1.15-1.46-1.49-2.47-1.2c-1,0.29-0.68,1-1.53,1.41
			c0,0-0.01,0-0.01,0c0,0-0.01,0-0.01,0c-0.81,0.42-2.43,0.37-2.96,0.84c-0.53,0.48,0.38,1.05,2.95,0.95
			C13.34,30.53,14.55,30.82,15.52,30.35z"/>
		<path class="st1" d="M18.58,29.52c-1.33-0.06-2.33-0.42-2.25-0.8c0.08-0.38,1.23-0.64,2.55-0.59c1.33,0.06,2.33,0.42,2.25,0.8
			C21.05,29.32,19.9,29.58,18.58,29.52z"/>
		<path class="st1" d="M14.03,31.81c-0.28-0.58-1.2-0.99-2.03-0.9c-0.84,0.08-1.29,0.62-1,1.2c0.28,0.58,1.2,0.99,2.03,0.9
			C13.86,32.93,14.31,32.39,14.03,31.81z"/>
		<path class="st1" d="M18.57,31.35c-1.2-0.33-1.78-0.87-1.31-1.22c0.47-0.34,1.83-0.36,3.03-0.03c1.2,0.33,1.78,0.87,1.31,1.22
			C21.13,31.66,19.77,31.68,18.57,31.35z"/>
		<path class="st1" d="M18.09,31.59c-0.87-0.49-2.15-0.69-2.86-0.44c-0.71,0.25-0.58,0.85,0.29,1.35c0.87,0.49,2.15,0.69,2.86,0.44
			C19.08,32.69,18.96,32.09,18.09,31.59z"/>
	</g>
	<g>
		<path class="st1" d="M339.17,34.14c-1.12-0.9-3.29-0.67-6-1.09c-3.98-0.62-5.93,0.13-5.53,0.98c0.4,0.85,3.02,1.05,3.93,1.87
			c0,0,0.01,0.01,0.01,0.01c0,0,0.01,0,0.01,0.01c0.98,0.8-0.17,1.87,1.16,2.51c1.33,0.64,3.82,0.35,4.98-1.46
			C338.51,35.73,340.18,35.07,339.17,34.14z"/>
		<path class="st1" d="M338.12,31.58c-0.97,0.87-2.78,1.35-4.03,1.07c-1.25-0.28-1.48-1.21-0.51-2.08c0.97-0.87,2.78-1.35,4.03-1.07
			C338.86,29.78,339.09,30.71,338.12,31.58z"/>
		<path class="st1" d="M343.27,36c-2.15-0.15-4.06,0.24-4.27,0.86c-0.21,0.62,1.36,1.24,3.52,1.38c2.15,0.14,4.06-0.24,4.27-0.86
			C346.99,36.77,345.42,36.15,343.27,36z"/>
		<path class="st1" d="M344.35,32.64c-1.82,0.62-4.02,0.71-4.92,0.18c-0.9-0.52-0.16-1.45,1.66-2.08c1.82-0.62,4.02-0.71,4.92-0.18
			C346.91,31.09,346.16,32.02,344.35,32.64z"/>
		<path class="st1" d="M344.9,33.12c-2.19,0.31-3.61,1.06-3.17,1.69c0.44,0.63,2.57,0.89,4.76,0.59c2.19-0.31,3.61-1.06,3.17-1.69
			C349.22,33.07,347.09,32.81,344.9,33.12z"/>
	</g>
	<g>
		<path class="st2" d="M291.61,23.54c-1.09-0.33-2.05,0.04-3.66,0.15c-2.37,0.15-2.92,0.75-2.22,1.14c0.7,0.38,2.14,0.18,3.07,0.49
			c0,0,0.01,0,0.01,0c0,0,0.01,0,0.01,0c0.96,0.29,1,0.96,2.05,1.13c1.04,0.17,2.14-0.27,1.66-1.31
			C292.2,24.42,292.66,23.89,291.61,23.54z"/>
		<path class="st2" d="M289.58,22.36c0.02,0.55-0.62,1-1.41,1.01c-0.8,0-1.45-0.44-1.47-0.99s0.62-1,1.41-1.01
			C288.91,21.37,289.57,21.81,289.58,22.36z"/>
		<path class="st2" d="M294.76,24c-1.17,0.18-1.91,0.59-1.66,0.93c0.26,0.34,1.41,0.47,2.58,0.29c1.17-0.18,1.91-0.59,1.66-0.93
			C297.08,23.95,295.93,23.82,294.76,24z"/>
		<path class="st2" d="M293.34,22.18c-0.55,0.53-1.62,0.82-2.38,0.66c-0.76-0.16-0.93-0.72-0.37-1.24c0.55-0.53,1.62-0.82,2.38-0.66
			C293.73,21.1,293.9,21.65,293.34,22.18z"/>
		<path class="st2" d="M293.9,22.35c-0.93,0.41-1.2,0.96-0.61,1.22c0.59,0.27,1.82,0.15,2.75-0.26c0.93-0.41,1.2-0.96,0.61-1.22
			C296.06,21.83,294.83,21.95,293.9,22.35z"/>
	</g>
	<g>
		<path class="st2" d="M156.69,32.77c1.57-0.13,1.71-0.81,2.93-1.51c1.79-1.02,1.13-1.76-0.21-1.83c-1.34-0.07-2.21,0.65-3.6,0.73
			c0,0-0.01,0-0.01,0c0,0-0.01,0-0.01,0c-1.39,0.11-2.7-0.46-3.93-0.22c-1.23,0.25-1.37,1.04,1.03,1.78
			C154.52,32.22,155.11,32.86,156.69,32.77z"/>
		<path class="st2" d="M160.68,33.03c-1.06-0.48-1.36-1.11-0.67-1.41s2.1-0.16,3.16,0.31c1.06,0.48,1.36,1.11,0.67,1.41
			C163.15,33.65,161.74,33.51,160.68,33.03z"/>
		<path class="st2" d="M153.06,33.55c0.69-0.6,0.55-1.24-0.31-1.44c-0.86-0.2-2.12,0.12-2.8,0.72c-0.69,0.6-0.55,1.24,0.31,1.44
			C151.12,34.47,152.37,34.15,153.06,33.55z"/>
		<path class="st2" d="M157.74,34.61c-0.51-0.67-0.14-1.33,0.83-1.48c0.97-0.15,2.16,0.28,2.67,0.95c0.51,0.67,0.14,1.33-0.83,1.48
			C159.45,35.71,158.25,35.28,157.74,34.61z"/>
		<path class="st2" d="M156.92,34.67c0.04-0.71-0.76-1.29-1.78-1.3c-1.02-0.01-1.88,0.55-1.92,1.26c-0.04,0.71,0.76,1.29,1.78,1.3
			C156.03,35.94,156.89,35.38,156.92,34.67z"/>
	</g>
	<g>
		<path class="st2" d="M254.95,8.41c-1.28-0.55-2.75-0.16-4.95-0.2c-3.23-0.06-4.29,0.69-3.57,1.27c0.73,0.58,2.75,0.47,3.82,0.98
			c0,0,0.01,0,0.01,0c0,0,0.01,0,0.01,0c1.12,0.49,0.82,1.39,2.11,1.73c1.3,0.34,2.98-0.12,2.92-1.57
			C255.26,9.64,256.16,8.99,254.95,8.41z"/>
		<path class="st2" d="M252.89,6.63c-0.28,0.74-1.36,1.27-2.42,1.19c-1.06-0.08-1.7-0.74-1.42-1.48c0.28-0.74,1.36-1.27,2.42-1.19
			C252.53,5.24,253.17,5.9,252.89,6.63z"/>
		<path class="st2" d="M258.89,9.37c-1.65,0.11-2.86,0.58-2.71,1.06s1.62,0.77,3.28,0.66c1.65-0.11,2.86-0.58,2.71-1.06
			C262.01,9.56,260.54,9.26,258.89,9.37z"/>
		<ellipse transform="matrix(0.969 -0.2472 0.2472 0.969 6.4082 63.5584)" class="st2" cx="256.32" cy="6.26" rx="2.56" ry="1.14"/>
		<path class="st2" d="M258.64,7.09c-1.45,0.44-2.11,1.14-1.47,1.56c0.64,0.42,2.34,0.4,3.79-0.05c1.45-0.44,2.11-1.14,1.47-1.56
			C261.79,6.62,260.09,6.64,258.64,7.09z"/>
	</g>
	<g>
		<path class="st2" d="M103.56,20.26c-0.09-0.5-1.16-0.6-2.17-1.03c-1.49-0.64-2.69-0.48-2.9-0.06c-0.21,0.42,0.87,0.74,0.9,1.18
			c0,0,0,0,0,0c0,0,0,0,0,0c0.07,0.44-0.92,0.82-0.62,1.22s1.54,0.5,2.87-0.2C102.54,20.91,103.59,20.77,103.56,20.26z"/>
		<path class="st2" d="M104.26,19.03c-0.83,0.3-1.84,0.35-2.28,0.11c-0.43-0.24-0.11-0.67,0.72-0.97c0.83-0.3,1.84-0.35,2.28-0.11
			C105.4,18.29,105.08,18.73,104.26,19.03z"/>
		<path class="st2" d="M104.53,21.46c-0.89-0.26-1.91-0.26-2.29-0.01c-0.37,0.26,0.04,0.67,0.93,0.93c0.89,0.26,1.91,0.26,2.29,0.01
			S105.42,21.72,104.53,21.46z"/>
		<path class="st2" d="M106.54,20.06c-1.09,0.11-2.11-0.05-2.27-0.36c-0.16-0.31,0.59-0.66,1.68-0.77s2.11,0.05,2.27,0.36
			C108.38,19.6,107.63,19.95,106.54,20.06z"/>
		<path class="st2" d="M106.57,20.32c-1.11-0.06-2.09,0.15-2.18,0.47c-0.09,0.32,0.74,0.63,1.85,0.69c1.11,0.06,2.09-0.15,2.18-0.47
			C108.51,20.7,107.68,20.39,106.57,20.32z"/>
	</g>
	<g>
		<path class="st2" d="M363.03,28.28c-0.09-0.5-1.16-0.6-2.17-1.03c-1.49-0.64-2.69-0.48-2.9-0.06c-0.21,0.42,0.87,0.74,0.9,1.18
			c0,0,0,0,0,0c0,0,0,0,0,0c0.07,0.44-0.92,0.82-0.62,1.22c0.3,0.4,1.54,0.5,2.87-0.2C362.01,28.92,363.06,28.78,363.03,28.28z"/>
		<path class="st2" d="M363.73,27.04c-0.83,0.3-1.85,0.35-2.28,0.11s-0.11-0.67,0.72-0.97c0.83-0.3,1.84-0.35,2.28-0.11
			C364.87,26.31,364.55,26.74,363.73,27.04z"/>
		<path class="st2" d="M364,29.47c-0.89-0.26-1.91-0.26-2.29-0.01c-0.37,0.26,0.04,0.67,0.93,0.93c0.89,0.26,1.91,0.26,2.29,0.01
			C365.31,30.15,364.89,29.73,364,29.47z"/>
		<path class="st2" d="M366.01,28.08c-1.09,0.11-2.11-0.05-2.27-0.36c-0.16-0.31,0.59-0.66,1.68-0.77c1.09-0.11,2.11,0.05,2.27,0.36
			C367.85,27.62,367.1,27.96,366.01,28.08z"/>
		<path class="st2" d="M366.04,28.34c-1.11-0.06-2.09,0.15-2.18,0.47c-0.09,0.32,0.74,0.63,1.85,0.69c1.11,0.06,2.09-0.15,2.18-0.47
			C367.98,28.71,367.15,28.4,366.04,28.34z"/>
	</g>
	<g>
		<path class="st2" d="M14.92,18.86c0.9-0.42,0.26-0.9,0.33-1.62c0.09-1.06-1.14-1.41-2.1-1.17c-0.96,0.24-0.77,0.9-1.6,1.25
			c0,0-0.01,0-0.01,0c0,0-0.01,0-0.01,0c-0.8,0.37-2.28,0.27-2.83,0.69c-0.55,0.42,0.2,0.98,2.58,0.96
			C12.89,18.96,13.96,19.26,14.92,18.86z"/>
		<path class="st2" d="M17.83,18.18c-1.21-0.09-2.08-0.44-1.95-0.79c0.13-0.35,1.21-0.56,2.42-0.47c1.21,0.09,2.08,0.44,1.95,0.79
			C20.13,18.06,19.04,18.27,17.83,18.18z"/>
		<path class="st2" d="M13.35,20.15c-0.18-0.54-0.96-0.94-1.74-0.89c-0.78,0.05-1.27,0.53-1.09,1.07c0.18,0.54,0.96,0.94,1.74,0.89
			C13.04,21.17,13.53,20.69,13.35,20.15z"/>
		<path class="st2" d="M17.58,19.85c-1.05-0.33-1.52-0.85-1.03-1.15c0.48-0.3,1.73-0.28,2.78,0.06c1.05,0.33,1.52,0.85,1.03,1.15
			C19.88,20.21,18.63,20.19,17.58,19.85z"/>
		<path class="st2" d="M17.1,20.07c-0.73-0.48-1.88-0.69-2.57-0.48c-0.69,0.21-0.65,0.77,0.08,1.24c0.73,0.48,1.88,0.69,2.57,0.48
			C17.86,21.1,17.83,20.54,17.1,20.07z"/>
	</g>
	<g>
		<path class="st2" d="M416.42,17.24c0.67,0.56,2,0.42,3.66,0.69c2.43,0.39,3.64-0.06,3.4-0.58c-0.23-0.52-1.83-0.65-2.37-1.16
			c0,0,0,0-0.01,0c0,0,0,0-0.01,0c-0.58-0.49,0.13-1.15-0.67-1.54c-0.8-0.4-2.34-0.23-3.07,0.88
			C416.86,16.27,415.82,16.66,416.42,17.24z"/>
		<path class="st2" d="M417.02,18.81c0.61-0.53,1.72-0.82,2.49-0.64c0.76,0.18,0.89,0.75,0.28,1.28c-0.61,0.53-1.72,0.82-2.49,0.64
			C416.54,19.91,416.41,19.34,417.02,18.81z"/>
		<path class="st2" d="M413.95,16.08c1.32,0.1,2.49-0.13,2.63-0.51c0.14-0.38-0.82-0.76-2.13-0.86c-1.32-0.1-2.49,0.13-2.63,0.51
			C411.68,15.6,412.63,15.99,413.95,16.08z"/>
		<path class="st2" d="M413.23,18.14c1.12-0.38,2.48-0.42,3.02-0.1c0.54,0.32,0.07,0.89-1.05,1.27s-2.48,0.42-3.02,0.1
			C411.63,19.08,412.1,18.51,413.23,18.14z"/>
		<path class="st2" d="M412.9,17.84c1.35-0.18,2.23-0.64,1.97-1.03c-0.26-0.39-1.56-0.56-2.91-0.38c-1.35,0.18-2.23,0.64-1.97,1.03
			C410.25,17.86,411.55,18.02,412.9,17.84z"/>
	</g>
	<g>
		<path class="st2" d="M77.71,22.32c0.67,0.56,2,0.42,3.66,0.69c2.43,0.39,3.64-0.06,3.4-0.58c-0.23-0.52-1.83-0.65-2.37-1.16
			c0,0,0,0,0,0c0,0,0,0-0.01,0c-0.58-0.49,0.13-1.15-0.67-1.54c-0.8-0.4-2.34-0.23-3.07,0.88C78.15,21.35,77.11,21.74,77.71,22.32z"
			/>
		<path class="st2" d="M78.32,23.89c0.61-0.53,1.72-0.82,2.49-0.64s0.89,0.75,0.28,1.28c-0.61,0.53-1.72,0.82-2.49,0.64
			C77.83,24.99,77.71,24.42,78.32,23.89z"/>
		<path class="st2" d="M75.24,21.16c1.32,0.1,2.49-0.13,2.63-0.51c0.14-0.38-0.82-0.76-2.13-0.86c-1.32-0.1-2.49,0.13-2.63,0.51
			C72.97,20.68,73.92,21.07,75.24,21.16z"/>
		<path class="st2" d="M74.52,23.22c1.12-0.38,2.48-0.42,3.02-0.1c0.54,0.32,0.07,0.89-1.05,1.27c-1.12,0.38-2.48,0.42-3.02,0.1
			C72.92,24.16,73.4,23.6,74.52,23.22z"/>
		<path class="st2" d="M74.19,22.93c1.35-0.18,2.23-0.64,1.97-1.03c-0.26-0.39-1.56-0.56-2.91-0.38c-1.35,0.18-2.23,0.64-1.97,1.03
			C71.54,22.94,72.84,23.11,74.19,22.93z"/>
	</g>
	<g>
		<path class="st2" d="M81.16,10.17c0.67,0.56,2,0.42,3.66,0.69c2.43,0.39,3.64-0.06,3.4-0.58c-0.23-0.52-1.83-0.65-2.37-1.16
			c0,0,0,0-0.01,0c0,0,0,0-0.01,0c-0.58-0.49,0.13-1.15-0.67-1.54c-0.8-0.4-2.34-0.23-3.07,0.88C81.6,9.2,80.56,9.6,81.16,10.17z"/>
		<path class="st2" d="M81.76,11.75c0.61-0.53,1.72-0.82,2.49-0.64s0.89,0.75,0.28,1.28c-0.61,0.53-1.72,0.82-2.49,0.64
			C81.28,12.85,81.15,12.28,81.76,11.75z"/>
		<path class="st2" d="M78.69,9.02c1.32,0.1,2.49-0.13,2.63-0.51c0.14-0.38-0.82-0.76-2.13-0.86c-1.32-0.1-2.49,0.13-2.63,0.51
			C76.42,8.54,77.37,8.93,78.69,9.02z"/>
		<path class="st2" d="M77.97,11.08c1.12-0.38,2.48-0.42,3.02-0.1c0.54,0.32,0.07,0.89-1.05,1.27c-1.12,0.38-2.48,0.42-3.02,0.1
			S76.84,11.45,77.97,11.08z"/>
		<path class="st2" d="M77.64,10.78c1.35-0.18,2.23-0.64,1.97-1.03c-0.26-0.39-1.56-0.56-2.91-0.38c-1.35,0.18-2.23,0.64-1.97,1.03
			C74.99,10.8,76.29,10.96,77.64,10.78z"/>
	</g>
	<g>
		<path class="st2" d="M176.27,14.73c0.67,0.56,2,0.42,3.66,0.69c2.43,0.39,3.64-0.06,3.4-0.58c-0.23-0.52-1.83-0.65-2.37-1.16
			c0,0,0,0,0,0c0,0,0,0-0.01,0c-0.58-0.49,0.13-1.15-0.67-1.54c-0.8-0.4-2.34-0.23-3.07,0.88C176.7,13.76,175.66,14.16,176.27,14.73
			z"/>
		<path class="st2" d="M176.87,16.3c0.61-0.53,1.72-0.82,2.49-0.64s0.89,0.75,0.28,1.28s-1.72,0.82-2.49,0.64
			C176.38,17.4,176.26,16.83,176.87,16.3z"/>
		<path class="st2" d="M173.79,13.58c1.32,0.1,2.49-0.13,2.63-0.51c0.14-0.38-0.82-0.76-2.13-0.86c-1.32-0.1-2.49,0.13-2.63,0.51
			C171.52,13.1,172.48,13.48,173.79,13.58z"/>
		<path class="st2" d="M173.07,15.63c1.12-0.38,2.48-0.42,3.02-0.1c0.54,0.32,0.07,0.89-1.05,1.27s-2.48,0.42-3.02,0.1
			S171.95,16.01,173.07,15.63z"/>
		<path class="st2" d="M172.74,15.34c1.35-0.18,2.23-0.64,1.97-1.03c-0.26-0.39-1.56-0.56-2.91-0.38c-1.35,0.18-2.23,0.64-1.97,1.03
			C170.1,15.35,171.4,15.52,172.74,15.34z"/>
	</g>
	<g>
		<path class="st2" d="M128.72,14.39c0.67,0.56,2,0.42,3.66,0.69c2.43,0.39,3.64-0.06,3.4-0.58c-0.23-0.52-1.83-0.65-2.37-1.16
			c0,0,0,0-0.01,0c0,0,0,0-0.01,0c-0.58-0.49,0.13-1.15-0.67-1.54c-0.8-0.4-2.34-0.23-3.07,0.88
			C129.15,13.42,128.11,13.81,128.72,14.39z"/>
		<path class="st2" d="M129.32,15.96c0.61-0.53,1.72-0.82,2.49-0.64c0.76,0.18,0.89,0.75,0.28,1.28c-0.61,0.53-1.72,0.82-2.49,0.64
			C128.83,17.06,128.71,16.49,129.32,15.96z"/>
		<path class="st2" d="M126.24,13.23c1.32,0.1,2.49-0.13,2.63-0.51c0.14-0.38-0.82-0.76-2.13-0.86c-1.32-0.1-2.49,0.13-2.63,0.51
			C123.97,12.75,124.92,13.14,126.24,13.23z"/>
		<path class="st2" d="M125.52,15.29c1.12-0.38,2.48-0.42,3.02-0.1c0.54,0.32,0.07,0.89-1.05,1.27s-2.48,0.42-3.02,0.1
			S124.4,15.66,125.52,15.29z"/>
		<path class="st2" d="M125.19,14.99c1.35-0.18,2.23-0.64,1.97-1.03c-0.26-0.39-1.56-0.56-2.91-0.38c-1.35,0.18-2.23,0.64-1.97,1.03
			C122.54,15.01,123.84,15.17,125.19,14.99z"/>
	</g>
	<g>
		<path class="st2" d="M133.75,26.37c0.67,0.56,2,0.42,3.66,0.69c2.43,0.39,3.64-0.06,3.4-0.58c-0.23-0.52-1.83-0.65-2.37-1.16
			c0,0,0,0-0.01,0c0,0,0,0-0.01,0c-0.58-0.49,0.13-1.15-0.67-1.54c-0.8-0.4-2.34-0.23-3.07,0.88
			C134.18,25.4,133.14,25.79,133.75,26.37z"/>
		<path class="st2" d="M134.35,27.94c0.61-0.53,1.72-0.82,2.49-0.64c0.76,0.18,0.89,0.75,0.28,1.28c-0.61,0.53-1.72,0.82-2.49,0.64
			C133.86,29.04,133.74,28.47,134.35,27.94z"/>
		<path class="st2" d="M131.27,25.21c1.32,0.1,2.49-0.13,2.63-0.51c0.14-0.38-0.82-0.76-2.13-0.86c-1.32-0.1-2.49,0.13-2.63,0.51
			C129,24.73,129.96,25.12,131.27,25.21z"/>
		<path class="st2" d="M130.55,27.27c1.12-0.38,2.48-0.42,3.02-0.1c0.54,0.32,0.07,0.89-1.05,1.27c-1.12,0.38-2.48,0.42-3.02,0.1
			S129.43,27.64,130.55,27.27z"/>
		<path class="st2" d="M130.22,26.97c1.35-0.18,2.23-0.64,1.97-1.03c-0.26-0.39-1.56-0.56-2.91-0.38c-1.35,0.18-2.23,0.64-1.97,1.03
			C127.58,26.99,128.88,27.15,130.22,26.97z"/>
	</g>
	<g>
		<path class="st2" d="M204.69,7.56c1.21,0.12,1.77-0.35,3.11-0.69c1.97-0.5,1.99-1.11,1.07-1.34c-0.91-0.23-2.02,0.17-3.08,0.05
			c0,0-0.01,0-0.01,0c0,0-0.01,0-0.01,0c-1.07-0.11-1.63-0.69-2.67-0.68c-1.05,0.01-1.67,0.56-0.45,1.41
			C203.49,6.88,203.49,7.42,204.69,7.56z"/>
		<path class="st2" d="M207.38,8.28c-0.44-0.48-0.23-0.98,0.46-1.1c0.7-0.13,1.62,0.16,2.06,0.64c0.44,0.48,0.23,0.98-0.46,1.1
			C208.74,9.05,207.82,8.77,207.38,8.28z"/>
		<path class="st2" d="M201.56,7.64c0.89-0.34,1.22-0.82,0.74-1.07c-0.48-0.26-1.6-0.19-2.49,0.14c-0.89,0.34-1.22,0.82-0.74,1.07
			C199.55,8.04,200.67,7.98,201.56,7.64z"/>
		<path class="st2" d="M204.21,9.03c0.08-0.55,0.79-0.97,1.58-0.95c0.79,0.02,1.37,0.49,1.29,1.04c-0.08,0.55-0.79,0.97-1.58,0.95
			C204.71,10.04,204.13,9.57,204.21,9.03z"/>
		<path class="st2" d="M203.59,8.96c0.5-0.5,0.32-1.03-0.41-1.17c-0.73-0.14-1.72,0.15-2.22,0.65c-0.5,0.5-0.32,1.03,0.41,1.17
			C202.09,9.75,203.09,9.46,203.59,8.96z"/>
	</g>
	<g>
		<path class="st3" d="M292.21,35.04c0.47-0.49-0.41-0.81-0.88-1.43c-0.68-0.92-1.97-1.04-2.61-0.7c-0.65,0.34-0.01,0.88-0.47,1.29
			c0,0,0,0,0,0c0,0,0,0,0,0c-0.42,0.43-1.75,0.55-1.92,0.99c-0.17,0.44,0.87,0.8,2.88,0.45C290.56,35.41,291.68,35.51,292.21,35.04z
			"/>
		<path class="st3" d="M294.22,34.05c-1.09,0.09-2.09-0.08-2.23-0.4c-0.14-0.31,0.64-0.65,1.73-0.74c1.09-0.09,2.09,0.08,2.23,0.4
			C296.09,33.62,295.32,33.95,294.22,34.05z"/>
		<path class="st3" d="M291.8,36.36c-0.54-0.44-1.48-0.66-2.11-0.51c-0.63,0.15-0.7,0.63-0.16,1.07c0.54,0.44,1.48,0.66,2.11,0.51
			C292.26,37.27,292.34,36.8,291.8,36.36z"/>
		<path class="st3" d="M295.19,35.51c-1.13-0.14-1.9-0.51-1.7-0.84c0.2-0.33,1.27-0.48,2.41-0.35c1.13,0.14,1.9,0.51,1.7,0.84
			C297.41,35.49,296.33,35.64,295.19,35.51z"/>
		<path class="st3" d="M294.93,35.76c-0.96-0.3-2.09-0.32-2.53-0.05c-0.44,0.28-0.01,0.75,0.95,1.05c0.96,0.3,2.09,0.32,2.53,0.05
			C296.32,36.53,295.89,36.06,294.93,35.76z"/>
	</g>
	<g>
		<path class="st3" d="M157.58,7.68c1.04-0.38,0.51-0.92,0.77-1.66c0.37-1.09-0.8-1.51-1.85-1.32c-1.05,0.2-1.03,0.89-1.98,1.21
			c0,0-0.01,0-0.01,0c0,0-0.01,0-0.01,0c-0.93,0.34-2.43,0.16-3.11,0.57c-0.68,0.41-0.05,1.02,2.41,1.12
			C155.46,7.68,156.49,8.04,157.58,7.68z"/>
		<path class="st3" d="M160.77,7.13c-1.22-0.16-2.03-0.57-1.81-0.92c0.23-0.35,1.4-0.51,2.62-0.35c1.22,0.16,2.03,0.57,1.81,0.92
			C163.16,7.13,161.99,7.29,160.77,7.13z"/>
		<path class="st3" d="M155.62,8.93c-0.04-0.57-0.74-1.02-1.56-1.01c-0.82,0.01-1.45,0.48-1.41,1.05c0.04,0.57,0.74,1.02,1.56,1.01
			C155.03,9.97,155.66,9.5,155.62,8.93z"/>
		
			<ellipse transform="matrix(0.2015 -0.9795 0.9795 0.2015 120.4905 164.4523)" class="st3" cx="161.11" cy="8.33" rx="0.8" ry="2.13"/>
		<path class="st3" d="M159.51,9.04c-0.63-0.53-1.76-0.81-2.52-0.63c-0.76,0.18-0.88,0.76-0.25,1.29c0.63,0.53,1.76,0.81,2.52,0.63
			C160.03,10.14,160.14,9.57,159.51,9.04z"/>
	</g>
	<g>
		<path class="st3" d="M335.67,21.33c-1.06-0.27-1.89,0.1-3.36,0.25c-2.16,0.21-2.58,0.79-1.87,1.12c0.71,0.33,2,0.1,2.91,0.35
			c0,0,0.01,0,0.01,0c0,0,0.01,0,0.01,0c0.93,0.24,1.08,0.86,2.07,0.98c0.99,0.12,1.93-0.31,1.33-1.26
			C336.36,22.13,336.7,21.62,335.67,21.33z"/>
		<path class="st3" d="M333.62,20.31c0.1,0.51-0.41,0.94-1.15,0.97c-0.73,0.03-1.41-0.36-1.51-0.87c-0.1-0.51,0.41-0.94,1.15-0.97
			C332.84,19.42,333.52,19.8,333.62,20.31z"/>
		<path class="st3" d="M338.65,21.66c-1.05,0.2-1.67,0.61-1.38,0.91s1.37,0.39,2.43,0.19c1.05-0.2,1.67-0.61,1.38-0.91
			C340.79,21.55,339.71,21.46,338.65,21.66z"/>
		<path class="st3" d="M337.06,20.02c-0.43,0.5-1.37,0.81-2.09,0.69c-0.73-0.12-0.97-0.63-0.54-1.14c0.43-0.5,1.37-0.81,2.09-0.69
			C337.25,19.01,337.49,19.52,337.06,20.02z"/>
		<path class="st3" d="M337.61,20.17c-0.79,0.41-0.96,0.92-0.37,1.15c0.59,0.23,1.7,0.08,2.5-0.32c0.79-0.41,0.96-0.92,0.37-1.15
			C339.51,19.62,338.4,19.76,337.61,20.17z"/>
	</g>
	<g>
		<path class="st3" d="M172.71,26.83c-1.06-0.27-1.89,0.1-3.36,0.25c-2.16,0.21-2.58,0.79-1.87,1.12c0.71,0.33,2,0.1,2.91,0.35
			c0,0,0.01,0,0.01,0c0,0,0.01,0,0.01,0c0.93,0.24,1.08,0.86,2.07,0.98c0.99,0.12,1.93-0.31,1.33-1.26
			C173.39,27.62,173.73,27.12,172.71,26.83z"/>
		<path class="st3" d="M170.66,25.81c0.1,0.51-0.41,0.94-1.15,0.97c-0.73,0.03-1.41-0.36-1.51-0.87c-0.1-0.51,0.41-0.94,1.15-0.97
			C169.88,24.91,170.55,25.3,170.66,25.81z"/>
		<path class="st3" d="M175.69,27.16c-1.05,0.2-1.67,0.61-1.38,0.91c0.29,0.3,1.37,0.39,2.43,0.19c1.05-0.2,1.67-0.61,1.38-0.91
			C177.83,27.04,176.74,26.96,175.69,27.16z"/>
		<path class="st3" d="M174.1,25.52c-0.43,0.5-1.37,0.81-2.09,0.69c-0.73-0.12-0.97-0.63-0.54-1.14c0.43-0.5,1.37-0.81,2.09-0.69
			C174.29,24.51,174.53,25.02,174.1,25.52z"/>
		<path class="st3" d="M174.64,25.66c-0.79,0.41-0.96,0.92-0.37,1.15c0.59,0.23,1.7,0.08,2.5-0.32c0.79-0.41,0.96-0.92,0.37-1.15
			C176.55,25.11,175.43,25.26,174.64,25.66z"/>
	</g>
	<g>
		<path class="st3" d="M199,21.45c1.25-0.46,0.62-1.09,0.93-1.97c0.45-1.3-0.94-1.8-2.2-1.57c-1.26,0.23-1.23,1.06-2.37,1.44
			c0,0-0.01,0-0.01,0c0,0-0.01,0-0.01,0c-1.11,0.4-2.89,0.18-3.71,0.67c-0.81,0.49-0.07,1.21,2.86,1.34
			C196.48,21.45,197.7,21.88,199,21.45z"/>
		<path class="st3" d="M202.81,20.81c-1.46-0.19-2.42-0.68-2.14-1.1c0.27-0.42,1.67-0.61,3.13-0.42c1.46,0.19,2.42,0.68,2.14,1.1
			C205.66,20.81,204.26,21,202.81,20.81z"/>
		<path class="st3" d="M196.66,22.94c-0.05-0.68-0.88-1.21-1.85-1.2c-0.98,0.01-1.73,0.57-1.68,1.25c0.05,0.68,0.88,1.21,1.85,1.2
			C195.95,24.18,196.7,23.62,196.66,22.94z"/>
		<path class="st3" d="M201.95,22.85c-1.19-0.48-1.59-1.14-0.9-1.49c0.69-0.34,2.21-0.23,3.4,0.25c1.19,0.48,1.59,1.14,0.9,1.49
			C204.66,23.44,203.14,23.33,201.95,22.85z"/>
		<path class="st3" d="M201.29,23.08c-0.74-0.63-2.09-0.97-3-0.76c-0.91,0.21-1.05,0.9-0.31,1.53c0.74,0.63,2.09,0.97,3,0.76
			C201.9,24.4,202.03,23.71,201.29,23.08z"/>
	</g>
	<g>
		<path class="st3" d="M368.59,18.84c0.64,0.43,1.71,0.28,3.11,0.44c2.05,0.24,2.97-0.17,2.69-0.59c-0.28-0.42-1.61-0.47-2.14-0.87
			c0,0,0,0,0,0c0,0,0,0-0.01,0c-0.56-0.38-0.08-0.94-0.81-1.24c-0.72-0.3-1.95-0.11-2.37,0.82C368.78,18.03,368,18.39,368.59,18.84z
			"/>
		<path class="st3" d="M369.34,20.11c0.41-0.45,1.27-0.73,1.93-0.61s0.85,0.58,0.44,1.04c-0.41,0.45-1.27,0.73-1.93,0.61
			C369.13,21.02,368.93,20.56,369.34,20.11z"/>
		<path class="st3" d="M366.36,17.97c1.09,0.03,2.02-0.19,2.07-0.51c0.05-0.31-0.8-0.6-1.89-0.63c-1.09-0.03-2.02,0.19-2.07,0.51
			C364.43,17.66,365.27,17.94,366.36,17.97z"/>
		<path class="st3" d="M366.12,19.68c0.86-0.35,1.96-0.43,2.46-0.18c0.5,0.25,0.21,0.73-0.65,1.07c-0.86,0.35-1.96,0.43-2.46,0.18
			C364.97,20.51,365.26,20.03,366.12,19.68z"/>
		<path class="st3" d="M365.8,19.45c1.07-0.19,1.72-0.6,1.44-0.91c-0.28-0.31-1.37-0.4-2.44-0.21c-1.07,0.19-1.72,0.6-1.44,0.91
			C363.64,19.55,364.73,19.65,365.8,19.45z"/>
	</g>
	<g>
		<path class="st3" d="M357.32,6.53c0.23-0.47-0.7-0.69-1.37-1.21c-0.98-0.77-2.19-0.77-2.63-0.41c-0.44,0.36,0.35,0.79,0.11,1.2
			c0,0,0,0,0,0c0,0,0,0,0,0c-0.2,0.42-1.35,0.64-1.31,1.05c0.03,0.41,1.11,0.65,2.76,0.17C355.99,7,357.04,7,357.32,6.53z"/>
		<path class="st3" d="M358.71,5.48c-0.94,0.17-1.91,0.1-2.16-0.18c-0.25-0.27,0.31-0.63,1.25-0.81c0.94-0.17,1.91-0.1,2.16,0.18
			C360.21,4.94,359.65,5.3,358.71,5.48z"/>
		<path class="st3" d="M357.49,7.75c-0.66-0.35-1.6-0.47-2.1-0.28s-0.37,0.63,0.29,0.97c0.66,0.35,1.6,0.47,2.1,0.28
			C358.28,8.53,358.15,8.09,357.49,7.75z"/>
		<path class="st3" d="M360.18,6.71c-1.07-0.03-1.91-0.3-1.87-0.61c0.04-0.31,0.94-0.54,2.02-0.51c1.07,0.03,1.91,0.3,1.87,0.61
			C362.16,6.51,361.26,6.73,360.18,6.71z"/>
		<path class="st3" d="M360.05,6.95c-0.99-0.19-2.01-0.12-2.29,0.17c-0.28,0.28,0.3,0.67,1.28,0.86c0.99,0.19,2.01,0.12,2.29-0.17
			C361.61,7.53,361.04,7.14,360.05,6.95z"/>
	</g>
	<g>
		<path class="st3" d="M53.38,29.82c-2.11-0.27-3.21,0.54-5.65,1.08c-3.59,0.79-3.76,1.88-2.2,2.32c1.56,0.45,3.6-0.21,5.44,0.06
			c0.01,0,0.01,0,0.02,0c0.01,0,0.01,0,0.02,0c1.86,0.24,2.72,1.3,4.57,1.32c1.85,0.02,3.08-0.92,1.12-2.47
			C55.34,31.08,55.46,30.14,53.38,29.82z"/>
		<path class="st3" d="M48.8,28.43c0.67,0.87,0.19,1.74-1.07,1.93c-1.26,0.19-2.82-0.36-3.49-1.23c-0.67-0.87-0.19-1.74,1.07-1.93
			C46.57,27,48.13,27.56,48.8,28.43z"/>
		<path class="st3" d="M58.93,29.83c-1.65,0.55-2.35,1.39-1.55,1.86c0.8,0.48,2.78,0.41,4.44-0.14c1.65-0.55,2.35-1.39,1.55-1.86
			C62.57,29.21,60.58,29.28,58.93,29.83z"/>
		<path class="st3" d="M54.56,27.26c-0.27,0.97-1.62,1.68-3.01,1.61c-1.39-0.08-2.3-0.92-2.04-1.89c0.27-0.97,1.62-1.68,3.01-1.61
			C53.92,25.45,54.83,26.3,54.56,27.26z"/>
		<path class="st3" d="M55.65,27.41c-1,0.86-0.8,1.8,0.45,2.09c1.25,0.29,3.07-0.18,4.07-1.04c1-0.86,0.8-1.8-0.45-2.09
			C58.47,26.08,56.65,26.55,55.65,27.41z"/>
	</g>
	<g>
		<path class="st4" d="M240.46,23.02c1.08,0.35,2.08-0.01,3.72-0.09c2.41-0.12,3.01-0.72,2.33-1.12s-2.15-0.21-3.07-0.54
			c0,0-0.01,0-0.01,0c0,0-0.01,0-0.01,0c-0.95-0.31-0.94-0.99-1.99-1.18c-1.04-0.19-2.18,0.24-1.78,1.3
			C239.93,22.13,239.42,22.65,240.46,23.02z"/>
		<path class="st4" d="M242.42,24.24c0.03-0.56,0.7-1.01,1.51-1c0.81,0.01,1.44,0.47,1.41,1.02c-0.03,0.56-0.7,1.01-1.5,1
			C243.03,25.26,242.39,24.8,242.42,24.24z"/>
		<path class="st4" d="M237.31,22.51c1.2-0.16,1.98-0.57,1.75-0.92c-0.23-0.34-1.39-0.49-2.59-0.33c-1.2,0.16-1.98,0.57-1.75,0.92
			S236.11,22.67,237.31,22.51z"/>
		<path class="st4" d="M238.6,24.37c0.6-0.52,1.7-0.81,2.46-0.64c0.76,0.17,0.88,0.74,0.28,1.26c-0.6,0.52-1.7,0.81-2.46,0.64
			C238.12,25.46,238,24.9,238.6,24.37z"/>
		<path class="st4" d="M238.05,24.19c0.97-0.4,1.29-0.95,0.71-1.23c-0.58-0.28-1.83-0.18-2.8,0.22c-0.97,0.4-1.29,0.95-0.71,1.23
			C235.83,24.68,237.08,24.59,238.05,24.19z"/>
	</g>
	<g>
		<path class="st4" d="M153.63,21.26c-1.98,0.33-1.79,1.24-3.01,2.29c-1.78,1.53-0.52,2.42,1.26,2.37c1.78-0.05,2.53-1.09,4.3-1.34
			c0.01,0,0.01,0,0.02,0c0.01,0,0.01,0,0.02,0c1.75-0.29,3.77,0.31,5.24-0.14c1.47-0.45,1.22-1.5-2.3-2.21
			C156.76,21.73,155.65,20.97,153.63,21.26z"/>
		
			<ellipse transform="matrix(0.1698 -0.9855 0.9855 0.1698 100.1328 163.2524)" class="st4" cx="146.96" cy="22.2" rx="1.14" ry="3.29"/>
		<path class="st4" d="M157.94,19.84c-0.58,0.85-0.05,1.68,1.18,1.84c1.23,0.17,2.69-0.39,3.27-1.24c0.58-0.85,0.05-1.68-1.18-1.84
			C159.99,18.44,158.52,18.99,157.94,19.84z"/>
		<path class="st4" d="M151.27,18.96c1.03,0.82,0.9,1.72-0.28,2.02c-1.18,0.3-2.97-0.13-4-0.95c-1.03-0.82-0.9-1.72,0.28-2.02
			C148.45,17.72,150.24,18.14,151.27,18.96z"/>
		<path class="st4" d="M152.3,18.8c0.33,0.93,1.68,1.6,3.02,1.5c1.34-0.1,2.15-0.92,1.82-1.85c-0.33-0.93-1.68-1.6-3.02-1.5
			C152.79,17.05,151.97,17.88,152.3,18.8z"/>
	</g>
	<g>
		<path class="st4" d="M403.46,7.76c-0.92-0.39-1.98-0.11-3.56-0.13c-2.32-0.03-3.08,0.51-2.55,0.92c0.53,0.42,1.98,0.33,2.76,0.69
			c0,0,0,0,0.01,0c0,0,0.01,0,0.01,0c0.81,0.35,0.6,1,1.54,1.23c0.93,0.24,2.14-0.1,2.08-1.13C403.7,8.65,404.33,8.18,403.46,7.76z"
			/>
		<path class="st4" d="M401.96,6.49c-0.19,0.53-0.96,0.91-1.73,0.86c-0.76-0.05-1.23-0.53-1.04-1.06s0.96-0.91,1.73-0.86
			C401.68,5.49,402.15,5.96,401.96,6.49z"/>
		<path class="st4" d="M406.3,8.44c-1.19,0.08-2.05,0.43-1.93,0.77c0.12,0.34,1.18,0.55,2.36,0.47c1.19-0.08,2.05-0.43,1.93-0.77
			C408.54,8.57,407.49,8.36,406.3,8.44z"/>
		<path class="st4" d="M405.63,6.59c-0.73,0.46-1.86,0.67-2.52,0.46c-0.67-0.21-0.62-0.75,0.11-1.22c0.73-0.46,1.86-0.67,2.52-0.46
			C406.4,5.59,406.35,6.13,405.63,6.59z"/>
		<path class="st4" d="M406.09,6.8c-1.04,0.32-1.51,0.83-1.04,1.13c0.47,0.3,1.68,0.28,2.72-0.04c1.04-0.32,1.51-0.83,1.04-1.13
			C408.35,6.46,407.13,6.48,406.09,6.8z"/>
	</g>
	<g>
		<path class="st4" d="M21.05,6.46c-1.71-0.11-2.38,0.58-4.16,1.11c-2.62,0.78-2.5,1.64-1.17,1.92c1.32,0.27,2.76-0.33,4.26-0.21
			c0,0,0.01,0,0.01,0c0,0,0.01,0,0.01,0c1.51,0.1,2.43,0.89,3.88,0.82c1.45-0.07,2.19-0.86,0.29-1.98
			C22.88,7.35,22.75,6.61,21.05,6.46z"/>
		<path class="st4" d="M17.15,5.59c0.73,0.65,0.55,1.35-0.38,1.56c-0.94,0.21-2.29-0.15-3.01-0.8C13.02,5.69,13.2,5,14.13,4.79
			C15.07,4.58,16.42,4.94,17.15,5.59z"/>
		<path class="st4" d="M25.38,6.2c-1.16,0.51-1.51,1.19-0.77,1.53c0.73,0.33,2.27,0.19,3.43-0.32c1.16-0.51,1.51-1.19,0.77-1.53
			S26.54,5.69,25.38,6.2z"/>
		<path class="st4" d="M21.37,4.4c0.02,0.77-0.86,1.39-1.97,1.4c-1.11,0.01-2.02-0.61-2.03-1.38s0.86-1.39,1.97-1.4
			C20.44,3.02,21.35,3.64,21.37,4.4z"/>
		<path class="st4" d="M22.25,4.47c-0.58,0.72-0.2,1.44,0.84,1.61c1.04,0.17,2.35-0.28,2.93-1.01c0.58-0.72,0.2-1.44-0.84-1.61
			C24.14,3.3,22.83,3.75,22.25,4.47z"/>
	</g>
	<g>
		<path class="st4" d="M64.75,6.04C64.18,6.62,65.25,7,65.82,7.75c0.82,1.1,2.38,1.24,3.15,0.83c0.78-0.41,0.01-1.05,0.56-1.56
			c0,0,0,0,0.01,0c0,0,0,0,0,0c0.51-0.51,2.1-0.67,2.3-1.2c0.2-0.53-1.05-0.97-3.46-0.53C66.73,5.58,65.38,5.47,64.75,6.04z"/>
		<path class="st4" d="M62.34,7.23c1.31-0.12,2.52,0.1,2.68,0.48c0.17,0.38-0.76,0.78-2.08,0.9c-1.31,0.12-2.52-0.1-2.68-0.48
			S61.03,7.35,62.34,7.23z"/>
		<path class="st4" d="M65.23,4.44c0.65,0.52,1.79,0.79,2.55,0.61c0.75-0.19,0.84-0.76,0.19-1.29c-0.65-0.52-1.79-0.79-2.55-0.61
			C64.67,3.34,64.58,3.92,65.23,4.44z"/>
		<path class="st4" d="M61.16,5.48c1.37,0.16,2.29,0.61,2.05,1c-0.23,0.39-1.53,0.58-2.89,0.42c-1.37-0.16-2.29-0.61-2.05-1
			C58.5,5.5,59.79,5.31,61.16,5.48z"/>
		<path class="st4" d="M61.47,5.18c1.16,0.36,2.52,0.38,3.04,0.05c0.52-0.33,0.01-0.9-1.15-1.26c-1.16-0.36-2.52-0.38-3.04-0.05
			C59.8,4.25,60.31,4.81,61.47,5.18z"/>
	</g>
	<g>
		<path class="st4" d="M304.06,8.29c-1.89-0.19-2.76,0.55-4.86,1.08c-3.07,0.78-3.1,1.74-1.67,2.09c1.42,0.36,3.15-0.27,4.8-0.07
			c0.01,0,0.01,0,0.02,0c0.01,0,0.01,0,0.02,0c1.67,0.17,2.54,1.08,4.17,1.06c1.63-0.02,2.61-0.88,0.7-2.2
			C305.93,9.35,305.93,8.52,304.06,8.29z"/>
		<path class="st4" d="M299.87,7.17c0.69,0.75,0.36,1.52-0.72,1.72c-1.09,0.2-2.53-0.25-3.21-1.01c-0.69-0.75-0.36-1.52,0.72-1.72
			C297.74,5.96,299.18,6.41,299.87,7.17z"/>
		<path class="st4" d="M308.94,8.17c-1.39,0.52-1.91,1.27-1.15,1.68c0.76,0.4,2.5,0.3,3.89-0.22s1.91-1.27,1.15-1.68
			C312.08,7.54,310.33,7.64,308.94,8.17z"/>
		<path class="st4" d="M304.8,6.01c-0.13,0.86-1.23,1.52-2.47,1.48c-1.24-0.04-2.13-0.76-2.01-1.62c0.13-0.86,1.23-1.52,2.47-1.48
			C304.03,4.43,304.93,5.15,304.8,6.01z"/>
		<path class="st4" d="M305.78,6.11c-0.78,0.78-0.5,1.6,0.64,1.83c1.13,0.22,2.68-0.23,3.46-1.01c0.78-0.78,0.5-1.6-0.64-1.83
			C308.11,4.88,306.56,5.33,305.78,6.11z"/>
	</g>
</g>
</svg>
